<mxfile host="app.diagrams.net" modified="2023-08-04T08:16:35.187Z" agent="Mozilla/5.0 (Windows NT 10.0; Win64; x64) AppleWebKit/537.36 (KHTML, like Gecko) Chrome/115.0.0.0 Safari/537.36" etag="3RL1yukti2zujajpbQCx" version="21.6.6" type="google">
  <diagram name="Page-1" id="WG2jzrCK_SyqCy59Pw4f">
    <mxGraphModel grid="1" page="1" gridSize="10" guides="1" tooltips="1" connect="1" arrows="1" fold="1" pageScale="1" pageWidth="850" pageHeight="1100" math="0" shadow="0">
      <root>
        <mxCell id="0" />
        <mxCell id="1" parent="0" />
        <mxCell id="zDuQRkbb6SaulgqWOGoU-1" value="Customers" style="sketch=0;outlineConnect=0;fontColor=#232F3E;gradientColor=none;fillColor=#232F3D;strokeColor=none;dashed=0;verticalLabelPosition=bottom;verticalAlign=top;align=center;html=1;fontSize=18;fontStyle=1;aspect=fixed;pointerEvents=1;shape=mxgraph.aws4.users;points=[[0.25,0,0,0,0],[0.25,1,0,0,0],[0.75,0,0,0,0],[0.75,1,0,0,0],[1,0.25,0,0,0],[1,0.75,0,0,0]];fontFamily=calibri;" vertex="1" parent="1">
          <mxGeometry x="80" y="280" width="80" height="80" as="geometry" />
        </mxCell>
        <mxCell id="zDuQRkbb6SaulgqWOGoU-2" value="Route 53" style="sketch=0;points=[[0,0,0],[0.25,0,0],[0.5,0,0],[0.75,0,0],[1,0,0],[0,1,0],[0.25,1,0],[0.5,1,0],[0.75,1,0],[1,1,0],[0,0.25,0],[0,0.5,0],[0,0.75,0],[1,0.25,0],[1,0.5,0],[1,0.75,0]];outlineConnect=0;fontColor=#232F3E;gradientColor=#945DF2;gradientDirection=north;fillColor=#5A30B5;strokeColor=#ffffff;dashed=0;verticalLabelPosition=bottom;verticalAlign=top;align=center;html=1;fontSize=18;fontStyle=1;aspect=fixed;shape=mxgraph.aws4.resourceIcon;resIcon=mxgraph.aws4.route_53;fontFamily=calibri;" vertex="1" parent="1">
          <mxGeometry x="280" y="280" width="80" height="80" as="geometry" />
        </mxCell>
        <mxCell id="zDuQRkbb6SaulgqWOGoU-3" value="API Gateway" style="sketch=0;points=[[0,0,0],[0.25,0,0],[0.5,0,0],[0.75,0,0],[1,0,0],[0,1,0],[0.25,1,0],[0.5,1,0],[0.75,1,0],[1,1,0],[0,0.25,0],[0,0.5,0],[0,0.75,0],[1,0.25,0],[1,0.5,0],[1,0.75,0]];outlineConnect=0;fontColor=#232F3E;gradientColor=#945DF2;gradientDirection=north;fillColor=#5A30B5;strokeColor=#ffffff;dashed=0;verticalLabelPosition=bottom;verticalAlign=top;align=center;html=1;fontSize=18;fontStyle=1;aspect=fixed;shape=mxgraph.aws4.resourceIcon;resIcon=mxgraph.aws4.api_gateway;fontFamily=calibri;" vertex="1" parent="1">
          <mxGeometry x="480" y="280" width="80" height="80" as="geometry" />
        </mxCell>
        <mxCell id="zDuQRkbb6SaulgqWOGoU-4" value="CloudFront" style="sketch=0;points=[[0,0,0],[0.25,0,0],[0.5,0,0],[0.75,0,0],[1,0,0],[0,1,0],[0.25,1,0],[0.5,1,0],[0.75,1,0],[1,1,0],[0,0.25,0],[0,0.5,0],[0,0.75,0],[1,0.25,0],[1,0.5,0],[1,0.75,0]];outlineConnect=0;fontColor=#232F3E;gradientColor=#945DF2;gradientDirection=north;fillColor=#5A30B5;strokeColor=#ffffff;dashed=0;verticalLabelPosition=bottom;verticalAlign=top;align=center;html=1;fontSize=18;fontStyle=1;aspect=fixed;shape=mxgraph.aws4.resourceIcon;resIcon=mxgraph.aws4.cloudfront;fontFamily=calibri;" vertex="1" parent="1">
          <mxGeometry x="480" y="520" width="80" height="80" as="geometry" />
        </mxCell>
        <mxCell id="zDuQRkbb6SaulgqWOGoU-5" value="S3 output bucket" style="sketch=0;points=[[0,0,0],[0.25,0,0],[0.5,0,0],[0.75,0,0],[1,0,0],[0,1,0],[0.25,1,0],[0.5,1,0],[0.75,1,0],[1,1,0],[0,0.25,0],[0,0.5,0],[0,0.75,0],[1,0.25,0],[1,0.5,0],[1,0.75,0]];outlineConnect=0;fontColor=#232F3E;gradientColor=#60A337;gradientDirection=north;fillColor=#277116;strokeColor=#ffffff;dashed=0;verticalLabelPosition=bottom;verticalAlign=top;align=center;html=1;fontSize=18;fontStyle=1;aspect=fixed;shape=mxgraph.aws4.resourceIcon;resIcon=mxgraph.aws4.s3;fontFamily=calibri;" vertex="1" parent="1">
          <mxGeometry x="900" y="520" width="80" height="80" as="geometry" />
        </mxCell>
        <mxCell id="zDuQRkbb6SaulgqWOGoU-6" value="Lambda&lt;br style=&quot;font-size: 18px;&quot;&gt;(getPhotos /&lt;br style=&quot;font-size: 18px;&quot;&gt;&amp;nbsp;getVideos)" style="sketch=0;points=[[0,0,0],[0.25,0,0],[0.5,0,0],[0.75,0,0],[1,0,0],[0,1,0],[0.25,1,0],[0.5,1,0],[0.75,1,0],[1,1,0],[0,0.25,0],[0,0.5,0],[0,0.75,0],[1,0.25,0],[1,0.5,0],[1,0.75,0]];outlineConnect=0;fontColor=#232F3E;gradientColor=#F78E04;gradientDirection=north;fillColor=#D05C17;strokeColor=#ffffff;dashed=0;verticalLabelPosition=bottom;verticalAlign=top;align=center;html=1;fontSize=18;fontStyle=1;aspect=fixed;shape=mxgraph.aws4.resourceIcon;resIcon=mxgraph.aws4.lambda;fontFamily=calibri;" vertex="1" parent="1">
          <mxGeometry x="700" y="280" width="80" height="80" as="geometry" />
        </mxCell>
        <mxCell id="zDuQRkbb6SaulgqWOGoU-7" value="DynamoDB" style="sketch=0;points=[[0,0,0],[0.25,0,0],[0.5,0,0],[0.75,0,0],[1,0,0],[0,1,0],[0.25,1,0],[0.5,1,0],[0.75,1,0],[1,1,0],[0,0.25,0],[0,0.5,0],[0,0.75,0],[1,0.25,0],[1,0.5,0],[1,0.75,0]];outlineConnect=0;fontColor=#232F3E;gradientColor=#4D72F3;gradientDirection=north;fillColor=#3334B9;strokeColor=#ffffff;dashed=0;verticalLabelPosition=bottom;verticalAlign=top;align=center;html=1;fontSize=18;fontStyle=1;aspect=fixed;shape=mxgraph.aws4.resourceIcon;resIcon=mxgraph.aws4.dynamodb;fontFamily=calibri;" vertex="1" parent="1">
          <mxGeometry x="900" y="280" width="80" height="80" as="geometry" />
        </mxCell>
        <mxCell id="zDuQRkbb6SaulgqWOGoU-8" value="Amazon Cognito&lt;br style=&quot;font-size: 18px;&quot;&gt;Hosted UI" style="sketch=0;points=[[0,0,0],[0.25,0,0],[0.5,0,0],[0.75,0,0],[1,0,0],[0,1,0],[0.25,1,0],[0.5,1,0],[0.75,1,0],[1,1,0],[0,0.25,0],[0,0.5,0],[0,0.75,0],[1,0.25,0],[1,0.5,0],[1,0.75,0]];outlineConnect=0;fontColor=#232F3E;gradientColor=#F54749;gradientDirection=north;fillColor=#C7131F;strokeColor=#ffffff;dashed=0;verticalLabelPosition=bottom;verticalAlign=top;align=center;html=1;fontSize=18;fontStyle=1;aspect=fixed;shape=mxgraph.aws4.resourceIcon;resIcon=mxgraph.aws4.cognito;fontFamily=calibri;" vertex="1" parent="1">
          <mxGeometry x="80" y="-40" width="80" height="80" as="geometry" />
        </mxCell>
        <mxCell id="zDuQRkbb6SaulgqWOGoU-9" value="Amazon Cognito&lt;br style=&quot;font-size: 18px;&quot;&gt;User Pool Authorizer" style="sketch=0;points=[[0,0,0],[0.25,0,0],[0.5,0,0],[0.75,0,0],[1,0,0],[0,1,0],[0.25,1,0],[0.5,1,0],[0.75,1,0],[1,1,0],[0,0.25,0],[0,0.5,0],[0,0.75,0],[1,0.25,0],[1,0.5,0],[1,0.75,0]];outlineConnect=0;fontColor=#232F3E;gradientColor=#F54749;gradientDirection=north;fillColor=#C7131F;strokeColor=#ffffff;dashed=0;verticalLabelPosition=bottom;verticalAlign=top;align=center;html=1;fontSize=18;fontStyle=1;aspect=fixed;shape=mxgraph.aws4.resourceIcon;resIcon=mxgraph.aws4.cognito;fontFamily=calibri;" vertex="1" parent="1">
          <mxGeometry x="480" y="-40" width="80" height="80" as="geometry" />
        </mxCell>
        <mxCell id="zDuQRkbb6SaulgqWOGoU-10" value="Lambda@Edge&lt;br style=&quot;font-size: 18px;&quot;&gt;(verifyRequest)" style="sketch=0;points=[[0,0,0],[0.25,0,0],[0.5,0,0],[0.75,0,0],[1,0,0],[0,1,0],[0.25,1,0],[0.5,1,0],[0.75,1,0],[1,1,0],[0,0.25,0],[0,0.5,0],[0,0.75,0],[1,0.25,0],[1,0.5,0],[1,0.75,0]];outlineConnect=0;fontColor=#232F3E;gradientColor=#F78E04;gradientDirection=north;fillColor=#D05C17;strokeColor=#ffffff;dashed=0;verticalLabelPosition=bottom;verticalAlign=top;align=center;html=1;fontSize=18;fontStyle=1;aspect=fixed;shape=mxgraph.aws4.resourceIcon;resIcon=mxgraph.aws4.lambda;fontFamily=calibri;" vertex="1" parent="1">
          <mxGeometry x="700" y="600" width="80" height="80" as="geometry" />
        </mxCell>
        <mxCell id="zDuQRkbb6SaulgqWOGoU-11" value="" style="edgeStyle=orthogonalEdgeStyle;html=1;endArrow=block;elbow=vertical;startArrow=none;endFill=1;strokeColor=#545B64;rounded=0;exitX=0.25;exitY=0;exitDx=0;exitDy=0;exitPerimeter=0;entryX=0.25;entryY=1;entryDx=0;entryDy=0;entryPerimeter=0;fontFamily=calibri;fontStyle=1;fontSize=18;" edge="1" parent="1" source="zDuQRkbb6SaulgqWOGoU-1" target="zDuQRkbb6SaulgqWOGoU-8">
          <mxGeometry width="100" relative="1" as="geometry">
            <mxPoint x="210" y="220" as="sourcePoint" />
            <mxPoint x="310" y="220" as="targetPoint" />
          </mxGeometry>
        </mxCell>
        <mxCell id="zDuQRkbb6SaulgqWOGoU-12" value="" style="edgeStyle=orthogonalEdgeStyle;html=1;endArrow=block;elbow=vertical;startArrow=none;endFill=1;strokeColor=#545B64;rounded=0;exitX=0.75;exitY=1;exitDx=0;exitDy=0;exitPerimeter=0;entryX=0.75;entryY=0;entryDx=0;entryDy=0;entryPerimeter=0;fontFamily=calibri;fontStyle=1;fontSize=18;" edge="1" parent="1" source="zDuQRkbb6SaulgqWOGoU-8" target="zDuQRkbb6SaulgqWOGoU-1">
          <mxGeometry width="100" relative="1" as="geometry">
            <mxPoint x="210" y="220" as="sourcePoint" />
            <mxPoint x="310" y="220" as="targetPoint" />
          </mxGeometry>
        </mxCell>
        <mxCell id="zDuQRkbb6SaulgqWOGoU-13" value="" style="edgeStyle=orthogonalEdgeStyle;html=1;endArrow=block;elbow=vertical;startArrow=block;endFill=1;strokeColor=#545B64;rounded=0;entryX=0;entryY=0.25;entryDx=0;entryDy=0;entryPerimeter=0;exitX=1;exitY=0.25;exitDx=0;exitDy=0;exitPerimeter=0;startFill=1;fontFamily=calibri;fontStyle=1;fontSize=18;" edge="1" parent="1" source="zDuQRkbb6SaulgqWOGoU-1" target="zDuQRkbb6SaulgqWOGoU-2">
          <mxGeometry width="100" relative="1" as="geometry">
            <mxPoint x="170" y="300" as="sourcePoint" />
            <mxPoint x="270" y="300" as="targetPoint" />
          </mxGeometry>
        </mxCell>
        <mxCell id="zDuQRkbb6SaulgqWOGoU-14" value="" style="edgeStyle=orthogonalEdgeStyle;html=1;endArrow=block;elbow=vertical;startArrow=block;startFill=1;strokeColor=#545B64;rounded=0;entryX=0;entryY=0.75;entryDx=0;entryDy=0;entryPerimeter=0;exitX=1;exitY=0.75;exitDx=0;exitDy=0;exitPerimeter=0;endFill=1;fontFamily=calibri;fontStyle=1;fontSize=18;" edge="1" parent="1" source="zDuQRkbb6SaulgqWOGoU-1" target="zDuQRkbb6SaulgqWOGoU-2">
          <mxGeometry width="100" relative="1" as="geometry">
            <mxPoint x="170" y="340" as="sourcePoint" />
            <mxPoint x="270" y="340" as="targetPoint" />
          </mxGeometry>
        </mxCell>
        <mxCell id="zDuQRkbb6SaulgqWOGoU-15" value="" style="edgeStyle=orthogonalEdgeStyle;html=1;endArrow=block;elbow=vertical;startArrow=block;endFill=1;strokeColor=#545B64;rounded=0;exitX=1;exitY=0.5;exitDx=0;exitDy=0;exitPerimeter=0;startFill=1;entryX=0;entryY=0.5;entryDx=0;entryDy=0;entryPerimeter=0;fontFamily=calibri;fontStyle=1;fontSize=18;" edge="1" parent="1" source="zDuQRkbb6SaulgqWOGoU-2" target="zDuQRkbb6SaulgqWOGoU-3">
          <mxGeometry width="100" relative="1" as="geometry">
            <mxPoint x="370" y="300" as="sourcePoint" />
            <mxPoint x="470" y="320" as="targetPoint" />
          </mxGeometry>
        </mxCell>
        <mxCell id="zDuQRkbb6SaulgqWOGoU-17" value="" style="edgeStyle=orthogonalEdgeStyle;html=1;endArrow=none;elbow=vertical;startArrow=block;startFill=1;strokeColor=#545B64;rounded=0;exitX=0.25;exitY=1;exitDx=0;exitDy=0;exitPerimeter=0;entryX=0.25;entryY=0;entryDx=0;entryDy=0;entryPerimeter=0;fontFamily=calibri;fontStyle=1;fontSize=18;" edge="1" parent="1" source="zDuQRkbb6SaulgqWOGoU-9" target="zDuQRkbb6SaulgqWOGoU-3">
          <mxGeometry width="100" relative="1" as="geometry">
            <mxPoint x="580" y="270" as="sourcePoint" />
            <mxPoint x="680" y="270" as="targetPoint" />
          </mxGeometry>
        </mxCell>
        <mxCell id="zDuQRkbb6SaulgqWOGoU-18" value="" style="edgeStyle=orthogonalEdgeStyle;html=1;endArrow=block;elbow=vertical;startArrow=none;endFill=1;strokeColor=#545B64;rounded=0;exitX=0.75;exitY=1;exitDx=0;exitDy=0;exitPerimeter=0;entryX=0.75;entryY=0;entryDx=0;entryDy=0;entryPerimeter=0;fontFamily=calibri;fontStyle=1;fontSize=18;" edge="1" parent="1" source="zDuQRkbb6SaulgqWOGoU-9" target="zDuQRkbb6SaulgqWOGoU-3">
          <mxGeometry width="100" relative="1" as="geometry">
            <mxPoint x="580" y="270" as="sourcePoint" />
            <mxPoint x="680" y="270" as="targetPoint" />
          </mxGeometry>
        </mxCell>
        <mxCell id="zDuQRkbb6SaulgqWOGoU-20" value="" style="edgeStyle=orthogonalEdgeStyle;html=1;endArrow=block;elbow=vertical;startArrow=block;endFill=1;strokeColor=#545B64;rounded=0;exitX=0.5;exitY=1;exitDx=0;exitDy=0;exitPerimeter=0;entryX=0;entryY=0.75;entryDx=0;entryDy=0;entryPerimeter=0;startFill=1;fontFamily=calibri;fontStyle=1;fontSize=18;" edge="1" parent="1" source="zDuQRkbb6SaulgqWOGoU-2" target="zDuQRkbb6SaulgqWOGoU-4">
          <mxGeometry width="100" relative="1" as="geometry">
            <mxPoint x="560" y="380" as="sourcePoint" />
            <mxPoint x="660" y="380" as="targetPoint" />
          </mxGeometry>
        </mxCell>
        <mxCell id="zDuQRkbb6SaulgqWOGoU-21" value="" style="edgeStyle=orthogonalEdgeStyle;html=1;endArrow=block;elbow=vertical;startArrow=none;endFill=1;strokeColor=#545B64;rounded=0;exitX=1;exitY=0.25;exitDx=0;exitDy=0;exitPerimeter=0;fontFamily=calibri;fontStyle=1;fontSize=18;entryX=0;entryY=0.25;entryDx=0;entryDy=0;entryPerimeter=0;" edge="1" parent="1" source="zDuQRkbb6SaulgqWOGoU-3" target="zDuQRkbb6SaulgqWOGoU-6">
          <mxGeometry width="100" relative="1" as="geometry">
            <mxPoint x="700" y="270" as="sourcePoint" />
            <mxPoint x="680" y="300" as="targetPoint" />
          </mxGeometry>
        </mxCell>
        <mxCell id="zDuQRkbb6SaulgqWOGoU-22" value="" style="edgeStyle=orthogonalEdgeStyle;html=1;endArrow=none;elbow=vertical;startArrow=block;startFill=1;strokeColor=#545B64;rounded=0;exitX=1;exitY=0.75;exitDx=0;exitDy=0;exitPerimeter=0;fontFamily=calibri;fontStyle=1;fontSize=18;entryX=0;entryY=0.75;entryDx=0;entryDy=0;entryPerimeter=0;" edge="1" parent="1" source="zDuQRkbb6SaulgqWOGoU-3" target="zDuQRkbb6SaulgqWOGoU-6">
          <mxGeometry width="100" relative="1" as="geometry">
            <mxPoint x="700" y="270" as="sourcePoint" />
            <mxPoint x="680" y="340" as="targetPoint" />
          </mxGeometry>
        </mxCell>
        <mxCell id="zDuQRkbb6SaulgqWOGoU-23" value="" style="edgeStyle=orthogonalEdgeStyle;html=1;endArrow=block;elbow=vertical;startArrow=block;endFill=1;strokeColor=#545B64;rounded=0;exitX=1;exitY=0.5;exitDx=0;exitDy=0;exitPerimeter=0;entryX=0;entryY=0.5;entryDx=0;entryDy=0;entryPerimeter=0;startFill=1;fontFamily=calibri;fontStyle=1;fontSize=18;" edge="1" parent="1" source="zDuQRkbb6SaulgqWOGoU-6" target="zDuQRkbb6SaulgqWOGoU-7">
          <mxGeometry width="100" relative="1" as="geometry">
            <mxPoint x="700" y="270" as="sourcePoint" />
            <mxPoint x="800" y="270" as="targetPoint" />
          </mxGeometry>
        </mxCell>
        <mxCell id="zDuQRkbb6SaulgqWOGoU-25" value="" style="edgeStyle=orthogonalEdgeStyle;html=1;endArrow=block;elbow=vertical;startArrow=block;endFill=1;strokeColor=#545B64;rounded=0;entryX=0;entryY=0.75;entryDx=0;entryDy=0;entryPerimeter=0;exitX=0.5;exitY=1;exitDx=0;exitDy=0;exitPerimeter=0;fontFamily=calibri;fontStyle=1;startFill=1;fontSize=18;" edge="1" parent="1" source="zDuQRkbb6SaulgqWOGoU-4" target="zDuQRkbb6SaulgqWOGoU-10">
          <mxGeometry width="100" relative="1" as="geometry">
            <mxPoint x="580" y="590" as="sourcePoint" />
            <mxPoint x="790" y="560" as="targetPoint" />
            <Array as="points">
              <mxPoint x="520" y="660" />
            </Array>
          </mxGeometry>
        </mxCell>
        <mxCell id="zDuQRkbb6SaulgqWOGoU-26" value="" style="edgeStyle=orthogonalEdgeStyle;html=1;endArrow=block;elbow=vertical;startArrow=none;endFill=1;strokeColor=#545B64;rounded=0;entryX=0.5;entryY=1;entryDx=0;entryDy=0;entryPerimeter=0;exitX=1;exitY=0.75;exitDx=0;exitDy=0;exitPerimeter=0;fontFamily=calibri;fontStyle=1;fontSize=18;" edge="1" parent="1" source="zDuQRkbb6SaulgqWOGoU-10" target="zDuQRkbb6SaulgqWOGoU-5">
          <mxGeometry width="100" relative="1" as="geometry">
            <mxPoint x="770" y="460" as="sourcePoint" />
            <mxPoint x="870" y="460" as="targetPoint" />
          </mxGeometry>
        </mxCell>
        <mxCell id="zDuQRkbb6SaulgqWOGoU-27" value="" style="edgeStyle=orthogonalEdgeStyle;html=1;endArrow=none;elbow=vertical;startArrow=block;startFill=1;strokeColor=#545B64;rounded=0;entryX=0;entryY=0.25;entryDx=0;entryDy=0;entryPerimeter=0;exitX=1;exitY=0.25;exitDx=0;exitDy=0;exitPerimeter=0;fontFamily=calibri;fontStyle=1;fontSize=18;" edge="1" parent="1" source="zDuQRkbb6SaulgqWOGoU-4" target="zDuQRkbb6SaulgqWOGoU-5">
          <mxGeometry width="100" relative="1" as="geometry">
            <mxPoint x="760" y="500" as="sourcePoint" />
            <mxPoint x="860" y="500" as="targetPoint" />
          </mxGeometry>
        </mxCell>
        <mxCell id="zDuQRkbb6SaulgqWOGoU-30" value="1. Signs in with Cognito." style="text;html=1;strokeColor=none;fillColor=none;align=center;verticalAlign=middle;whiteSpace=wrap;rounded=0;fontFamily=calibri;fontStyle=1;fontSize=18;" vertex="1" parent="1">
          <mxGeometry x="-20" y="110" width="120" height="30" as="geometry" />
        </mxCell>
        <mxCell id="zDuQRkbb6SaulgqWOGoU-31" value="2. Cognito returns a token (JWT)" style="text;html=1;strokeColor=none;fillColor=none;align=center;verticalAlign=middle;whiteSpace=wrap;rounded=0;fontFamily=calibri;fontStyle=1;fontSize=18;" vertex="1" parent="1">
          <mxGeometry x="147.5" y="110" width="145" height="30" as="geometry" />
        </mxCell>
        <mxCell id="zDuQRkbb6SaulgqWOGoU-32" value="3. Sends a GET /photos or GET /videos request" style="text;html=1;strokeColor=none;fillColor=none;align=center;verticalAlign=middle;whiteSpace=wrap;rounded=0;fontFamily=calibri;fontStyle=1;fontSize=18;" vertex="1" parent="1">
          <mxGeometry x="155" y="240" width="120" height="30" as="geometry" />
        </mxCell>
        <mxCell id="zDuQRkbb6SaulgqWOGoU-33" value="4. Routes the request to API Gateway." style="text;html=1;strokeColor=none;fillColor=none;align=center;verticalAlign=middle;whiteSpace=wrap;rounded=0;fontFamily=calibri;fontStyle=1;fontSize=18;" vertex="1" parent="1">
          <mxGeometry x="360" y="260" width="120" height="30" as="geometry" />
        </mxCell>
        <mxCell id="zDuQRkbb6SaulgqWOGoU-34" value="5. Verifies the JWT token sent in the request." style="text;html=1;strokeColor=none;fillColor=none;align=center;verticalAlign=middle;whiteSpace=wrap;rounded=0;fontFamily=calibri;fontStyle=1;fontSize=18;" vertex="1" parent="1">
          <mxGeometry x="330" y="120" width="160" height="30" as="geometry" />
        </mxCell>
        <mxCell id="zDuQRkbb6SaulgqWOGoU-35" value="6. If the token is missing/invalid, the request is denied." style="text;html=1;strokeColor=none;fillColor=none;align=center;verticalAlign=middle;whiteSpace=wrap;rounded=0;fontFamily=calibri;fontStyle=1;fontSize=18;" vertex="1" parent="1">
          <mxGeometry x="550" y="130" width="130" height="30" as="geometry" />
        </mxCell>
        <mxCell id="zDuQRkbb6SaulgqWOGoU-36" value="7. Triggers the getPhotos / getVideos function." style="text;html=1;strokeColor=none;fillColor=none;align=center;verticalAlign=middle;whiteSpace=wrap;rounded=0;fontFamily=calibri;fontStyle=1;fontSize=18;" vertex="1" parent="1">
          <mxGeometry x="570" y="240" width="110" height="30" as="geometry" />
        </mxCell>
        <mxCell id="zDuQRkbb6SaulgqWOGoU-37" value="8. Gets the metadata of all photos/videos uploaded by the username specified in the JWT" style="text;html=1;strokeColor=none;fillColor=none;align=center;verticalAlign=middle;whiteSpace=wrap;rounded=0;fontFamily=calibri;fontStyle=1;fontSize=18;" vertex="1" parent="1">
          <mxGeometry x="760" y="240" width="160" height="20" as="geometry" />
        </mxCell>
        <mxCell id="zDuQRkbb6SaulgqWOGoU-38" value="9. Result is returned to the customer." style="text;html=1;strokeColor=none;fillColor=none;align=center;verticalAlign=middle;whiteSpace=wrap;rounded=0;fontFamily=calibri;fontStyle=1;fontSize=18;" vertex="1" parent="1">
          <mxGeometry x="580" y="360" width="110" height="30" as="geometry" />
        </mxCell>
        <mxCell id="zDuQRkbb6SaulgqWOGoU-39" value="10. Requests the photos / videos after retrieving their metadata." style="text;html=1;strokeColor=none;fillColor=none;align=center;verticalAlign=middle;whiteSpace=wrap;rounded=0;fontFamily=calibri;fontStyle=1;fontSize=18;" vertex="1" parent="1">
          <mxGeometry x="160" y="390" width="120" height="30" as="geometry" />
        </mxCell>
        <mxCell id="zDuQRkbb6SaulgqWOGoU-40" value="11. The requests are routed to the CloudFront distribution." style="text;html=1;strokeColor=none;fillColor=none;align=center;verticalAlign=middle;whiteSpace=wrap;rounded=0;fontFamily=calibri;fontStyle=1;fontSize=18;" vertex="1" parent="1">
          <mxGeometry x="330" y="460" width="130" height="30" as="geometry" />
        </mxCell>
        <mxCell id="zDuQRkbb6SaulgqWOGoU-41" value="12. Triggers the function, which checks if the request is valid. If not, it returns an &quot;Unauthorized&quot; response." style="text;html=1;strokeColor=none;fillColor=none;align=center;verticalAlign=middle;whiteSpace=wrap;rounded=0;fontFamily=calibri;fontStyle=1;fontSize=18;" vertex="1" parent="1">
          <mxGeometry x="460" y="700" width="210" height="30" as="geometry" />
        </mxCell>
        <mxCell id="zDuQRkbb6SaulgqWOGoU-42" value="13. Forwards the request to the S3 output bucket containing the items." style="text;html=1;strokeColor=none;fillColor=none;align=center;verticalAlign=middle;whiteSpace=wrap;rounded=0;fontFamily=calibri;fontStyle=1;fontSize=18;" vertex="1" parent="1">
          <mxGeometry x="810" y="700" width="180" height="30" as="geometry" />
        </mxCell>
        <mxCell id="zDuQRkbb6SaulgqWOGoU-43" value="14. S3 returns the photos/videos requested." style="text;html=1;strokeColor=none;fillColor=none;align=center;verticalAlign=middle;whiteSpace=wrap;rounded=0;fontFamily=calibri;fontStyle=1;fontSize=18;" vertex="1" parent="1">
          <mxGeometry x="665" y="490" width="150" height="30" as="geometry" />
        </mxCell>
      </root>
    </mxGraphModel>
  </diagram>
</mxfile>
